<?xml version="1.0" encoding="utf-8" ?>
<svg baseProfile="full" height="100%" version="1.1" viewBox="-1310.1760418184087 -1661.4876171535427 67545.17711882584 67656.73369416088" width="100%" xmlns="http://www.w3.org/2000/svg" xmlns:ev="http://www.w3.org/2001/xml-events" xmlns:xlink="http://www.w3.org/1999/xlink"><defs /><path d="M 12282.45,16180.0 L 12131.464349789465,16179.463965870576 L 11993.256630359798,16149.815646323057 L 11884.370796493007,16065.903505778999 L 11796.080478689142,15952.962747914376 L 11662.247111440927,15953.185499743278 L 11566.372443004624,16026.00724234565 L 11423.923682744648,15982.231073401936 L 11296.083638887263,15913.620030308777 L 11164.23029162727,15828.894965452178 L 11043.657609489126,15724.661040548694 L 10964.385164886886,15610.22799087249 L 10903.917749399938,15486.016648842435 L 10837.734960813948,15359.932417764563 L 10743.424276042815,15270.957973449502 L 10619.233093914643,15269.188848151107 L 10464.879897811697,15248.793977361462 L 10328.92718585769,15184.001908748492 L 10207.039259185125,15094.864722433029 L 10099.781653027452,14997.308893599684 L 9993.723983255175,14877.036015631871 L 9913.81935638372,14778.995104391486 L 9796.596472741056,14701.233415081564 L 9654.585885719522,14647.99446142322 L 9553.192379405184,14581.221839599535 L 9571.738626075905,14442.334264051133 L 9619.856040884635,14295.430505863942 L 9646.868044829489,14152.184256820181 L 9607.078702735324,14021.520656100889 L 9522.859892531793,13899.5877088722 L 9465.722531815343,13773.94592066581 L 9398.322047827263,13653.289493669014 L 9272.679287385388,13576.7544093318 L 9132.503946631008,13540.532968792457 L 8994.45645412371,13504.363064082714 L 8943.118278097387,13583.995434865314 L 9001.406211401869,13731.96494160171 L 9053.154717629233,13865.344756491799 L 9014.820421014401,13993.471391677012 L 9043.118164511352,14130.499437999006 L 8973.487687676427,14241.66409450966 L 8850.095820508866,14272.807105564712 L 8702.92902480892,14253.044179781073 L 8570.291751491082,14211.362164071472 L 8426.347631433078,14152.355925490401 L 8284.083878721292,14082.686094243305 L 8152.229270392447,14008.545269856073 L 8038.329944272945,13936.197602642687 L 7912.257030179465,13839.4955154256 L 7836.5378216512045,13744.556354412161 L 7805.781348480179,13608.846884904928 L 7725.082071674025,13491.974346451569 L 7595.84148761433,13420.04187830091 L 7449.0507402840185,13378.141913788286 L 7437.921560223723,13484.071972107307 L 7539.03820704066,13604.852245205333 L 7621.60627263716,13713.347950969075 L 7561.82001630267,13836.26085189427 L 7541.97635023026,13975.497804478104 L 7603.254528537667,14108.02403612412 L 7632.777712845103,14244.99295940632 L 7594.134783734923,14382.116479091184 L 7549.813963307897,14528.536588780515 L 7458.283646045676,14599.125985443676 L 7307.236143399609,14584.79269916038 L 7184.060513987237,14646.405346345988 L 7241.977306025806,14734.545090813153 L 7395.576578793178,14754.341075284818 L 7452.737040593312,14857.20592964586 L 7446.342472427087,15015.422418436558 L 7377.397859096751,15121.087424335612 L 7279.429647559594,15134.201277485548 L 7112.824485501455,15207.44604048048 L 6991.934023738594,15275.191837718474 L 6858.512528469839,15357.065928598144 L 6731.719719267214,15443.32543693491 L 6620.977511981897,15533.331460635729 L 6529.533585237651,15667.78577811253 L 6509.881156891026,15784.216345644918 L 6435.540739918558,15889.918788837324 L 6300.93127193705,15847.213655581374 L 6166.250316768112,15796.259122443162 L 6038.422640693116,15818.004283343427 L 5999.62940793402,15957.689713330034 L 5997.57862868768,16102.37601278991 L 5992.066129306854,16255.525493537118 L 5952.627636314467,16405.646964849362 L 5848.082867068379,16453.286230252368 L 5712.447416999433,16424.45403985617 L 5575.375987640854,16358.727032122899 L 5454.232375281911,16276.566453163492 L 5352.618919559455,16173.007269087411 L 5276.5613099798775,16055.40308500402 L 5205.630249346551,15917.474203467038 L 5223.366675970014,15798.18559308006 L 5337.232768350743,15694.936100120354 L 5388.892438751135,15571.279586434859 L 5275.117240662097,15499.176589497636 L 5134.963826905023,15489.293516682532 L 4990.719120447279,15451.634478765967 L 4871.551753195449,15377.554279063128 L 4776.719093523037,15270.193026389068 L 4720.812329467138,15137.258483678437 L 4760.50084347872,15009.110697442495 L 4863.12348165035,14900.57127798476 L 4976.408287726196,14815.485923190863 L 5116.21703430864,14772.12844982019 L 5246.171412616802,14720.161821935646 L 5352.205836406766,14628.816766257149 L 5475.511212998962,14563.175950956875 L 5608.544590546711,14526.94959600537 L 5750.34972360949,14504.886198889066 L 5903.168260554636,14484.066110651489 L 6048.625822497764,14463.755675923308 L 6192.97215929145,14444.976619735808 L 6352.096309355314,14428.640426567072 L 6489.771099942687,14413.03381441821 L 6613.215132280224,14356.340751192043 L 6605.651774834184,14245.751683579661 L 6509.2401516272375,14124.800200653523 L 6422.364285056751,14004.763594527461 L 6386.959399521559,13872.385270794093 L 6376.314368877838,13727.821090428322 L 6334.583317226987,13590.605109746999 L 6271.1999585185,13457.081660240117 L 6213.3596201964365,13318.433454992793 L 6181.646391604502,13170.581273456575 L 6168.311152369989,13030.846756941884 L 6111.276454015249,12915.764406026618 L 6013.492638653644,12836.66436801184 L 5981.413719632171,12699.359157802253 L 5949.383515317619,12557.63522437219 L 5927.221309701631,12400.71035830326 L 5916.410642417704,12253.932685583577 L 5902.211940823654,12113.264592444575 L 5863.043707678242,11960.893403498336 L 5797.447974937917,11848.788463204499 L 5678.4685572736225,11776.875857958972 L 5529.173417052748,11742.095141782542 L 5396.553058495569,11736.160395802774 L 5366.2609916938845,11866.769849061 L 5344.300094795276,12020.776340198643 L 5296.007908018222,12146.769732752484 L 5280.12306164441,12286.584998592154 L 5258.372045982303,12438.183446532492 L 5164.081959756227,12502.32497858706 L 5019.329844159955,12466.529977647142 L 4870.733974680221,12417.697569388798 L 4738.664283080294,12376.713703743011 L 4600.435522600721,12324.87542300331 L 4518.056553695603,12213.51565079766 L 4456.74413546215,12085.678804419766 L 4333.727404013207,12082.809192514012 L 4177.682067280006,12101.012575666848 L 4033.6784254390727,12091.596121208142 L 3885.8141087521426,12066.646584424581 L 3751.3762935315226,12021.009144541724 L 3649.898341994298,11923.365956922658 L 3597.1126009075706,11787.63324346175 L 3590.4656233341757,11648.319337331402 L 3572.5282281918644,11511.350777311534 L 3552.9380770896564,11373.54090413003 L 3611.7092101425455,11239.19198552015 L 3664.8092004817045,11105.71292617459 L 3669.0362721024953,10962.63294960357 L 3631.196490421942,10822.503939270628 L 3509.3013423228767,10819.476425043807 L 3395.564493706611,10897.053565879238 L 3259.010961564662,10968.206237158762 L 3109.6359253845512,10988.514159364237 L 2971.626347758771,10969.098452962457 L 2842.270576633033,10897.416475279033 L 2776.773501264257,10774.22071818462 L 2684.643719492364,10696.752619206887 L 2536.717922830583,10683.822308248476 L 2404.6217224215484,10629.826218440474 L 2316.6111771189153,10525.91608566906 L 2256.4219858188794,10390.365633434012 L 2181.550240524166,10263.756048761647 L 2104.365272551096,10144.338335804245 L 2039.2175830450583,10013.075199823345 L 1979.512609547279,9884.80416704102 L 1900.7162514708084,9766.551785094342 L 1808.9978394728664,9660.892084374154 L 1765.1300351889047,9513.650718219777 L 1768.4474553369419,9373.809719482395 L 1875.1877798194205,9403.834570803501 L 2011.7823776764535,9465.219857861526 L 2151.8503687976477,9452.963227942928 L 2274.8326472078293,9390.14169873572 L 2377.0782842415274,9284.57518117237 L 2443.1248054428797,9169.362334510904 L 2500.330948544279,9034.364150175934 L 2551.496058699553,8892.552610570165 L 2596.4431011051756,8761.856374969288 L 2645.8270770721524,8624.443914338337 L 2702.686268157741,8482.634958760245 L 2767.2255193825413,8342.548718676766 L 2836.404099812753,8212.674378067823 L 2905.7545934610703,8104.343482055989 L 3016.4045453858726,7986.662795744986 L 3126.5129274000956,7926.718116040859 L 3265.7476951813146,7884.836654458913 L 3389.107027068346,7817.399457462624 L 3428.507017091357,7694.465894698803 L 3462.5196514805375,7550.846387412808 L 3534.5933155735283,7428.193368013472 L 3646.470908484567,7324.685636484766 L 3775.0727454840876,7250.139651084097 L 3913.80697804751,7195.410155502044 L 4037.71626496897,7152.948350115878 L 4139.005066369636,7053.378329765084 L 4243.006791965206,6965.354043866045 L 4381.341178582603,6951.262012098952 L 4527.546086989101,6950.471446504247 L 4673.888182027639,6942.210980944599 L 4818.50107777831,6918.241135533079 L 4958.130112208344,6879.760257214569 L 5098.28286816926,6828.242321756397 L 5232.659522072969,6771.75295949282 L 5371.869136822071,6719.839215834254 L 5450.004053642336,6635.425714273734 L 5436.511505832417,6486.242267476171 L 5436.0321982716,6331.38756875046 L 5520.890524977025,6281.6771996973 L 5644.277603574177,6361.103115487455 L 5765.243051939504,6442.442791618817 L 5898.795997445935,6496.947271887818 L 6041.1325491945945,6530.019106870079 L 6183.3005305769175,6551.539926858891 L 6334.78841182479,6553.283510113201 L 6377.743300723398,6450.279014364101 L 6347.120435203803,6310.272339540392 L 6411.583336560233,6192.138286867697 L 6532.755134550133,6126.741684671717 L 6663.722226133447,6046.468510946898 L 6776.812736284263,5953.547397354402 L 6887.037654097337,5846.166236580148 L 6989.164898326655,5763.254641236684 L 7128.569301545256,5743.021454780653 L 7270.97289904823,5725.5634461836335 L 7399.827259699122,5661.2351974143585 L 7531.473257739186,5618.939657374175 L 7650.630736294436,5691.321108474596 L 7716.527836482617,5825.122914091581 L 7739.033481886806,5968.101724484167 L 7850.546748078827,6013.071971521519 L 7985.5524878802,5954.313819829115 L 8098.14323937076,5854.227771753805 L 8141.32199039949,5728.673818011802 L 8106.973608185062,5585.255569694689 L 8004.666602062747,5501.287456788485 L 7858.268425435981,5514.836669951103 L 7723.265677513087,5490.697598679099 L 7657.059018450919,5386.964556153554 L 7688.811593260077,5233.480625383071 L 7742.248292628234,5110.04606438198 L 7809.269892606131,4975.454369525929 L 7880.832315981189,4842.765777367183 L 7959.24883414409,4709.925444788893 L 8037.988192095427,4598.262704258947 L 8133.218235263859,4493.4099804046145 L 8239.565962238985,4394.972305280571 L 8342.266280702226,4297.597201874558 L 8432.832840066221,4189.394468661044 L 8504.104718378918,4071.441174528316 L 8567.29625628501,3941.9040078585995 L 8631.987917993083,3805.046862473497 L 8701.974484291679,3675.2208051630014 L 8785.803729276622,3562.4559484833026 L 8902.49617088474,3468.4184771048363 L 9018.749846573299,3397.4627754354187 L 9118.863909184303,3298.850529132277 L 9176.670539113018,3184.1313382363637 L 9248.676527773838,3042.3283590788506 L 9331.54852030515,2918.9927736896066 L 9419.356735247326,2804.256903607318 L 9512.093672884548,2682.161835004463 L 9584.750821113419,2573.917218653875 L 9621.063761719728,2441.7512007371924 L 9564.6824946918,2308.8032213092742 L 9606.991411294846,2178.830855919199 L 9736.4235254733,2131.046437966238 L 9844.288230967974,2033.9741984484458 L 9931.448919393151,1917.0106638504947 L 10039.716183100665,1833.765693840979 L 10179.770471671041,1784.8764089138374 L 10320.889969127336,1741.9348096320787 L 10463.21451009575,1701.7651408925544 L 10590.481684433898,1652.1920182769538 L 10693.80380266065,1548.1986974808422 L 10781.084632235297,1444.0477003425729 L 10921.838652189446,1413.8184598537707 L 11065.043536793883,1422.9668685834224 L 11032.403577774545,1514.515374673667 L 10907.958708179738,1603.7526548438993 L 10783.87621388917,1703.8731888452226 L 10724.530386238352,1811.7571141336348 L 10660.145287084177,1931.9627265313502 L 10552.46957831083,2042.9206283373876 L 10436.107836733585,2129.5323670754915 L 10312.527431263368,2209.6960601489072 L 10199.534645730771,2295.0126108961513 L 10123.020494565086,2413.4543479932618 L 10090.524645420577,2552.706212018768 L 10067.62276025757,2693.0113849641666 L 10013.715455504116,2824.23901278544 L 9922.103309276397,2933.1864760950434 L 9802.177914143958,3024.847049516193 L 9687.363989375395,3111.0678017921064 L 9633.112494482843,3227.484967926178 L 9627.619664969334,3374.618129427754 L 9616.993512031082,3522.2671529387867 L 9600.733637637202,3665.5816305603576 L 9585.181966463957,3809.901033626904 L 9576.705992291167,3950.2086319386467 L 9549.467805275232,4091.523682405808 L 9470.383710920083,4210.359150024229 L 9351.553462122789,4296.300212333095 L 9227.339096028083,4361.509215216949 L 9134.655175330048,4457.8084015771565 L 9065.123298521676,4585.167233311962 L 9003.864768776766,4719.33448926512 L 8944.709628283947,4860.104630598918 L 8893.590660681593,4994.638834798833 L 8852.727034168123,5128.693136641086 L 8823.162347457546,5267.220463465418 L 8799.499363553505,5414.239184968206 L 8776.26336434872,5552.484619334463 L 8733.945881387512,5687.514662340176 L 8670.798723661324,5813.12323859753 L 8593.686614481827,5943.796775708578 L 8520.099005159072,6063.2274238780365 L 8461.113540306289,6196.194979347261 L 8472.543589018436,6334.808028463443 L 8475.957871266404,6476.280527517721 L 8446.399413581687,6604.641851818685 L 8430.598834824223,6750.86117995766 L 8437.69140821507,6897.421318002412 L 8472.617658657578,7043.728540083222 L 8533.161837594267,7175.292765436847 L 8609.105975491148,7296.882449425724 L 8702.464932991628,7420.225067281561 L 8801.655128255912,7514.335750256036 L 8907.455953428329,7598.369134263015 L 8914.974986913501,7736.048019445799 L 8878.9445330648,7878.288008600298 L 8860.696763327574,8023.349371451414 L 8883.688228445788,8164.562185959442 L 8934.58968463348,8297.930035170406 L 9035.46815244098,8400.535765665085 L 9167.223573079707,8462.996013724038 L 9263.471788414048,8547.382518880288 L 9297.757612198444,8687.021346915451 L 9303.275527953125,8836.510774504683 L 9315.437594481109,8984.374056956467 L 9372.647501607962,9113.539360182554 L 9485.850333202303,9197.151957612448 L 9611.33558317685,9173.786665182306 L 9693.478898439223,9053.263816899605 L 9722.551255659579,8913.198300606338 L 9752.077735851424,8772.989875940459 L 9825.867494283037,8653.58614593825 L 9902.083359375703,8525.650947578646 L 9963.873880768751,8397.523156727808 L 10039.61557022088,8273.070615979885 L 10144.056013105652,8176.255176016316 L 10274.606184894912,8128.193184559012 L 10411.302152150492,8129.98868522248 L 10558.930577084551,8155.7053775711165 L 10699.42820630984,8175.653010767905 L 10844.971036227245,8199.996299805085 L 10990.601327258346,8241.19435148231 L 11118.077014826997,8291.555502593053 L 11250.165051159396,8349.60289154464 L 11394.359412435484,8413.066605924983 L 11437.424617112465,8362.937694105207 L 11353.913828383402,8203.14282702438 L 11274.246071310637,8099.074395674887 L 11180.610722814241,7982.515814059048 L 11087.26324723929,7861.413190369554 L 11001.594511847656,7732.480646721514 L 10934.27784130574,7598.795050677241 L 10889.359577798716,7470.977092893181 L 10858.715460863836,7339.746351242581 L 10836.123888857199,7200.092377544963 L 10815.315063333668,7056.453615898457 L 10790.569994760188,6916.067883415695 L 10761.55198506761,6775.322029741422 L 10731.312034719169,6632.501444416183 L 10701.840884169875,6480.661043566549 L 10678.930838809627,6332.534534668022 L 10668.101870215161,6203.700296828121 L 10679.029951350021,6065.605646291794 L 10720.05749714084,5925.831453299867 L 10764.6032252511,5798.83767484157 L 10813.238775944397,5657.58598845797 L 10858.647046466102,5512.399712350698 L 10899.3769709475,5363.7684693656565 L 10938.993308007968,5236.406040476194 L 11002.333955528477,5109.6447994321115 L 11085.959476818565,4996.0932898876845 L 11177.582114515892,4883.9919951699285 L 11268.423413882501,4772.321958541544 L 11351.413739889264,4650.528689888675 L 11381.882731482308,4515.411224951833 L 11363.244553314122,4373.894659159792 L 11358.810259445341,4232.019154798401 L 11449.844446013507,4121.452531286977 L 11480.808515461926,4005.388158828658 L 11360.34467331993,3937.360386199369 L 11277.373924809119,3863.4466179422534 L 11292.908583215463,3700.803534218213 L 11339.727493269478,3580.2245487503133 L 11404.030247647353,3443.67359037234 L 11476.109789864971,3305.133032955846 L 11554.85445677805,3163.484701692376 L 11636.17979647602,3023.0144303352704 L 11698.2403969971,2911.257410517542 L 11750.962482617317,2777.897599301052 L 11743.923548125998,2655.415825736592 L 11623.496600183122,2588.9966729650046 L 11481.303037854386,2549.708421284646 L 11378.432324627185,2460.487356262607 L 11417.055229740869,2324.6903733211498 L 11462.949482411641,2187.942320931052 L 11486.13612913242,2045.2940041253246 L 11477.008716758177,1903.4442627587055 L 11445.232794444564,1764.557927053455 L 11421.577571371407,1621.14272552985 L 11426.891067085811,1472.861275932722 L 11521.407698024877,1426.6155952272347 L 11689.790569936533,1430.6034615689039 L 11843.744645798757,1437.7427977189227 L 11979.098758270675,1452.6686113214746 L 12093.794224642987,1526.9656458528991 L 12178.759242534297,1636.8582628097106 L 12319.295205852148,1633.6062888398153 L 12466.007139293657,1607.7901783795805 L 12525.110167096338,1716.5816189683044 L 12515.970596492542,1865.0244957344523 L 12481.767167624868,2004.8935438632152 L 12445.437044995206,2142.4606237089724 L 12389.874698987529,2285.3536519490035 L 12322.550405276312,2405.983881204449 L 12226.1896881003,2510.8776991846644 L 12144.23032861119,2628.4797830662487 L 12064.281988799961,2745.045901586892 L 12024.709337972257,2887.7818136106803 L 12009.684990817683,3028.630982226386 L 11959.262875443597,3161.744753684943 L 11919.000448352064,3297.6727241157196 L 11910.213259124675,3440.829232639377 L 11948.334295717328,3579.6169031099366 L 12012.789648847445,3709.2042495777982 L 12084.350716632744,3835.6414650903193 L 12166.781477016675,3950.629860361224 L 12284.968477862043,4011.404402326788 L 12431.256053545165,4033.4943149477213 L 12579.630291000201,4029.912240316519 L 12722.182894134356,4018.275104633018 L 12865.394950413136,4021.9358840350246 L 13007.352883359408,4048.3424472116867 L 13145.180153042676,4090.4345008691466 L 13276.045666022135,4145.221601228965 L 13401.38527233018,4217.924895320726 L 13519.385114850938,4307.002899564749 L 13631.039754726431,4398.506579895411 L 13745.916663762286,4481.00524558461 L 13872.265574626275,4539.13494552472 L 14012.169782271012,4575.244071689584 L 14157.910254722006,4601.699727050292 L 14306.705583684981,4626.82261450368 L 14436.025579408397,4661.335549419026 L 14566.858136313276,4722.486269865111 L 14699.640747632498,4764.392636972793 L 14842.033688488546,4749.948464550077 L 14975.663706618181,4697.434099927578 L 15108.85820121848,4631.551057237036 L 15236.186457525171,4570.107322768038 L 15377.785498961377,4522.168788711549 L 15511.219867859598,4543.968049316378 L 15636.942656470457,4593.462463603665 L 15785.832221856901,4577.445464645011 L 15932.481335427445,4552.891018106442 L 16049.33622969781,4611.91359266813 L 16051.998343912173,4745.723749462876 L 15995.284776037983,4861.219731142973 L 15942.232505632011,5013.063821177279 L 15922.567325764927,5151.800924131388 L 15913.647205690031,5302.399263302725 L 15912.914439347765,5457.657091207724 L 15912.714260869816,5601.847778358289 L 15882.170126076267,5730.489591158681 L 15827.333256443473,5860.936977672745 L 15801.527710833458,6001.997257691481 L 15732.812546622386,6124.970834122337 L 15613.115277107034,6192.499944233094 L 15461.031684830183,6215.7178147705445 L 15333.680572221016,6253.274321304458 L 15289.228164752089,6386.364775572613 L 15287.337120769327,6535.262094217474 L 15313.22894141579,6686.318653306414 L 15377.884713661997,6798.226940067429 L 15449.08804337185,6923.941733535132 L 15484.524174080361,7060.438398404728 L 15485.30862223546,7202.982265833876 L 15476.384997811685,7350.585653189377 L 15460.276431427821,7496.285222201841 L 15431.814229603859,7635.687930946857 L 15375.00253203929,7760.86253943923 L 15279.605428161341,7872.150438764068 L 15166.325715792093,7963.316976699526 L 15035.2237848944,8040.849486245243 L 14949.039422933818,8141.588250671215 L 15013.080856357305,8254.426936690468 L 15134.214095240797,8210.478540917977 L 15252.814852105326,8112.340697272374 L 15357.156596241824,8013.396276957835 L 15466.573368171621,7918.11993633942 L 15601.497154471,7873.572804404323 L 15737.291744044172,7834.63128647905 L 15809.514918370553,7721.200674138416 L 15828.467045146577,7579.697133840528 L 15889.369916031119,7448.730582065732 L 15979.892470162551,7331.519095056732 L 16065.792140421345,7214.3762111556325 L 16129.593002014954,7100.9531472232575 L 16149.520205840028,6946.631999669342 L 16159.776121784778,6800.481093393384 L 16247.51214097487,6707.784907687561 L 16390.03800878536,6699.749218652271 L 16525.57821330683,6732.919268257307 L 16590.75427382315,6859.244094452037 L 16614.951557447297,7000.012598781251 L 16656.763522359044,7140.197550341337 L 16725.972309418554,7261.772639413904 L 16864.466541625578,7264.94997731034 L 17012.302548478536,7239.000599077542 L 17120.79420268133,7168.161008815381 L 17151.825790112947,7024.467474007888 L 17180.203596940413,6875.446754699788 L 17272.70071934736,6788.415834251424 L 17413.973884323685,6752.081429333714 L 17533.014786095555,6684.856642610171 L 17643.276533209122,6591.038878441949 L 17771.3615469081,6525.702308011249 L 17913.485892651017,6463.806092362526 L 18037.12810863156,6450.004977863399 L 18069.933514021202,6589.258866175483 L 18022.522498693288,6719.638546577458 L 17920.470900521737,6822.323571549037 L 17824.675302597763,6932.148228690196 L 17741.704378840655,7046.943739582409 L 17780.984250389123,7178.122140583352 L 17862.42983175738,7272.141419498971 L 17788.121520994504,7397.130278280163 L 17685.07490370821,7498.760789701786 L 17573.62544939767,7589.31455427754 L 17462.140678233893,7688.434306778574 L 17377.270780734434,7796.0280534405365 L 17329.064118499762,7932.534613726165 L 17341.09594065925,8060.735513071176 L 17492.306063786706,8056.619431191688 L 17582.033508651606,8139.637707246883 L 17644.371428128306,8245.484668911755 L 17795.343647982558,8234.56239030452 L 17937.828000299647,8243.237841495382 L 18001.956901036003,8349.105514394492 L 18032.621661670044,8484.48479555063 L 18172.918930322616,8513.493549056724 L 18299.220244327524,8570.823373831285 L 18385.340206234167,8685.708700389367 L 18426.756404435542,8824.176411027687 L 18424.193471529758,8967.116843550586 L 18366.020177682927,9094.5059954845 L 18241.12789712429,9152.110093025209 L 18097.866620974575,9137.117183800838 L 17941.73263793491,9108.181422345262 L 17842.94679595796,9160.935198458821 L 17884.395521546634,9296.336906830762 L 17973.825872948582,9409.97702103694 L 18062.33375658834,9519.758927267887 L 18134.384515109738,9646.626022009516 L 18191.998585447716,9780.654578436499 L 18246.044311415095,9915.610124907782 L 18278.27058835421,10054.66953126696 L 18299.96236720899,10198.524151984659 L 18319.153728112542,10338.002901577549 L 18281.714901871866,10476.8061382668 L 18195.075423777187,10580.788919910756 L 18062.18724089383,10639.397233491633 L 17924.760896462325,10695.343913331695 L 17795.999361313396,10755.92376979196 L 17669.047703605138,10821.901737991979 L 17568.74091273524,10923.168673456941 L 17460.862382728497,11016.130497344164 L 17339.4793583027,11104.140593134574 L 17241.642088200166,11201.33427845848 L 17198.540000000005,11338.079999999989 L 63159.695000000116,62919.94000000003 Z" fill="none" stroke="#000000" stroke-linecap="round" stroke-linejoin="round" stroke-width="50" /></svg>